<svg xmlns="http://www.w3.org/2000/svg" width="420" height="420" viewBox="0 0 420 420" fill="none">
  <defs>
    <g id="eagle-mark">
      <path
        fill="#64748B"
        d="M233.696 131.172l-38.391-17.801c-.729-.307-1.567-.383-2.316-.104l-14.619 5.085L159.059 68.56c-.385-.966-1.207-1.671-2.225-1.896L14.687 35.002c-1.31-.247-2.645.291-3.338 1.445-.681 1.146-.555 2.606.323 3.618l29.637 34.266L3.484 69.55c-1.262-.165-2.542.495-3.14 1.655-.595 1.146-.407 2.561.471 3.526l114.781 124.839c.613.646 1.453.998 2.292.998.683 0 1.364-.217 1.939-.674l68.685-54.938 44.446-7.914c1.343-.245 2.365-1.319 2.533-2.666.154-1.34-.576-2.623-1.795-3.204ZM49.455 74.291 22.473 43.113 153.86 72.367l18.635 48.025-11.897 4.12-18.522-36.095c-.465-.898-1.347-1.525-2.377-1.651L49.834 75.407c-.126-.367-.096-.794-.379-1.116Zm137.154 64.715a3.051 3.051 0 0 0-1.387.629l-27.783 22.218-7.357-7.29c-1.198-1.218-3.174-1.206-4.396.017-1.202 1.202-1.187 3.166.024 4.376l6.845 6.784-34.382 27.516L82.869 154.84l56.124-12.392c1.142-.261 2.04-1.126 2.341-2.252.288-1.142-.076-2.332-.958-3.105l-13.309-11.686c-1.291-1.15-3.246-1.026-4.391.276-1.132 1.29-.998 3.238.291 4.388l8.704 7.65-53.664 11.866L53.2 122.6l56.298-6.853c1.16-.145 2.142-.922 2.541-2.016.403-1.116.143-2.331-.651-3.178L99.268 97.648c-1.178-1.258-3.132-1.305-4.382-.15-1.246 1.154-1.31 3.132-.148 4.382l7.937 8.443-54.637 6.659-36.96-40.199L137.27 92.741l19.02 37.021c.689 1.379 2.332 2.056 3.764 1.503l33.758-11.714 28.316 13.116-35.519 6.339Z"
      />
    </g>
  </defs>

  <g opacity="0.12">
    <use href="#eagle-mark" transform="translate(24 34) scale(0.34) rotate(-7 117.756 117.756)" />
    <use href="#eagle-mark" transform="translate(236 68) scale(0.32) rotate(9 117.756 117.756)" />
    <use href="#eagle-mark" transform="translate(122 186) scale(0.33) rotate(-11 117.756 117.756)" />
    <use href="#eagle-mark" transform="translate(274 246) scale(0.31) rotate(6 117.756 117.756)" />
    <use href="#eagle-mark" transform="translate(20 278) scale(0.3) rotate(12 117.756 117.756)" />
  </g>
</svg>
